#!OML:ASF C:\Vicon Data\Big\jianyuan-13\jianyuan\Session 1\Capture.male.ASF
:FULLY-SPECIFIED
:DEGREES
56
root -8.248856 17.740376 -21.533627 11.293311 -4.316313 0.736050
lowerback -12.658461 -1.112663 -2.340555 
upperback 2.249797 -1.126068 0.181049 
thorax 9.600147 -0.678034 1.283423 
lowerneck -3.975887 -1.285672 2.250497 
upperneck 22.857476 -1.267391 -3.681898 
head 7.618251 -0.739902 -1.689642 
rclavicle 0.000000 0.000000 
rhumerus -35.470036 -9.120675 -83.848249 
rradius 36.979197 
rwrist 27.881997 
rhand -16.733091 -15.926221 
rfingers 0.000000 
rthumb 9.492863 -45.692437 
lclavicle 0.000000 0.000000 
lhumerus -17.767098 19.147457 88.973324 
lradius 30.065109 
lwrist -47.734347 
lhand -21.236528 1.666264 
lfingers 0.000000 
lthumb 5.145943 31.583756 
rfemur -25.617454 0.740893 26.872924 
rtibia 28.543247 
rfoot -17.832855 -9.013640 
rtoes -18.026456 
lfemur -23.984630 7.378314 -18.203512 
ltibia 62.122606 
lfoot 1.184573 -7.762701 
ltoes -34.864989 
57
root -8.261569 17.739535 -21.473950 11.182625 -4.431430 0.652602
lowerback -12.442453 -1.033365 -2.288874 
upperback 2.298410 -1.034379 0.189090 
thorax 9.522846 -0.631232 1.284345 
lowerneck -4.190432 -1.123625 2.317269 
upperneck 22.942817 -1.123893 -3.349698 
head 7.693103 -0.638069 -1.584214 
rclavicle 0.000000 0.000000 
rhumerus -35.113234 -9.069432 -83.993399 
rradius 36.990615 
rwrist 28.055153 
rhand -16.686635 -15.755795 
rfingers 0.000000 
rthumb 9.537720 -45.519938 
lclavicle 0.000000 0.000000 
lhumerus -18.171524 20.147037 88.474214 
lradius 29.542606 
lwrist -48.461923 
lhand -21.330343 1.680256 
lfingers 0.000000 
lthumb 5.055385 31.599915 
rfemur -25.226648 0.782124 26.991353 
rtibia 28.521376 
rfoot -18.046677 -8.945492 
rtoes -18.011982 
lfemur -24.799702 6.971887 -17.883747 
ltibia 62.968563 
lfoot 0.506860 -6.680059 
ltoes -33.880011 
58
root -8.273983 17.739687 -21.414418 11.103802 -4.564105 0.706319
lowerback -12.270315 -0.978628 -2.350913 
upperback 2.331965 -0.951647 0.146046 
thorax 9.456362 -0.593262 1.291944 
lowerneck -4.211790 -1.139956 2.330830 
upperneck 22.936290 -1.162908 -3.282496 
head 7.694213 -0.649632 -1.567413 
rclavicle 0.000000 0.000000 
rhumerus -34.758050 -8.895586 -84.238112 
rradius 36.933826 
rwrist 28.154116 
rhand -16.779272 -15.792525 
rfingers 0.000000 
rthumb 9.448346 -45.560707 
lclavicle 0.000000 0.000000 
lhumerus -18.671323 21.273363 87.843775 
lradius 29.087857 
lwrist -49.377993 
lhand -21.357265 1.591129 
lfingers 0.000000 
lthumb 5.029378 31.511399 
rfemur -24.901398 0.793605 26.964983 
rtibia 28.517340 
rfoot -18.254892 -8.862881 
rtoes -17.984850 
lfemur -25.655721 6.430397 -17.743648 
ltibia 63.670083 
lfoot -0.117251 -5.536675 
ltoes -33.641658 
59
root -8.295779 17.741676 -21.350889 11.023632 -4.889295 0.713856
lowerback -12.168137 -0.848240 -2.485838 
upperback 2.385176 -0.755899 0.118806 
thorax 9.448732 -0.506127 1.379349 
lowerneck -4.204365 -1.134392 2.345312 
upperneck 22.903010 -1.168828 -3.225722 
head 7.682105 -0.645990 -1.551024 
rclavicle 0.000000 0.000000 
rhumerus -34.469008 -8.832850 -84.423118 
rradius 37.077353 
rwrist 28.068818 
rhand -16.772450 -15.691710 
rfingers 0.000000 
rthumb 9.454919 -45.459656 
lclavicle 0.000000 0.000000 
lhumerus -19.203279 22.628998 87.222806 
lradius 28.575803 
lwrist -50.678609 
lhand -21.488231 1.606639 
lfingers 0.000000 
lthumb 4.902923 31.529905 
rfemur -24.517066 1.080506 26.978719 
rtibia 28.480053 
rfoot -18.450240 -8.852057 
rtoes -18.060332 
lfemur -26.395500 6.056923 -17.521389 
ltibia 64.245317 
lfoot -0.733085 -4.544902 
ltoes -33.272164 
